HIERARCHY
ROOT RootJoint
{
    OFFSET   0.000000   0.000000   0.000000
    CHANNELS 6 Xposition Yposition Zposition Xrotation Yrotation Zrotation
    JOINT lHip
    {
        OFFSET   0.100000  -0.051395   0.000000
        CHANNELS 3 Xrotation Yrotation Zrotation
        JOINT lKnee
        {
            OFFSET   0.000000  -0.410000   0.000000
            CHANNELS 3 Xrotation Yrotation Zrotation
            JOINT lAnkle
            {
                OFFSET   0.000000  -0.390000   0.000000
                CHANNELS 3 Xrotation Yrotation Zrotation
                JOINT lToeJoint
                {
                    OFFSET   0.000000  -0.050000   0.130000
                    CHANNELS 3 Xrotation Yrotation Zrotation
                    End Site
                    {
                        OFFSET   0.010000   0.002000   0.060000
                    }
                }
            }
        }
    }
    JOINT rHip
    {
        OFFSET  -0.100000  -0.051395   0.000000
        CHANNELS 3 Xrotation Yrotation Zrotation
        JOINT rKnee
        {
            OFFSET   0.000000  -0.410000   0.000000
            CHANNELS 3 Xrotation Yrotation Zrotation
            JOINT rAnkle
            {
                OFFSET   0.000000  -0.390000   0.000000
                CHANNELS 3 Xrotation Yrotation Zrotation
                JOINT rToeJoint
                {
                    OFFSET   0.000000  -0.050000   0.130000
                    CHANNELS 3 Xrotation Yrotation Zrotation
                    End Site
                    {
                        OFFSET  -0.010000   0.002000   0.060000
                    }
                }
            }
        }
    }
    JOINT pelvis_lowerback
    {
        OFFSET   0.000000   0.093605   0.000000
        CHANNELS 3 Xrotation Yrotation Zrotation
        JOINT lowerback_torso
        {
            OFFSET   0.000000   0.100000   0.000000
            CHANNELS 3 Xrotation Yrotation Zrotation
            JOINT torso_head
            {
                OFFSET   0.000000   0.282350   0.000000
                CHANNELS 3 Xrotation Yrotation Zrotation
                End Site
                {
                    OFFSET   0.000000   0.192650   0.000000
                }
            }
            JOINT lTorso_Clavicle
            {
                OFFSET   0.001000   0.157500   0.000000
                CHANNELS 3 Xrotation Yrotation Zrotation
                JOINT lShoulder
                {
                    OFFSET   0.117647   0.000000   0.000000
                    CHANNELS 3 Xrotation Yrotation Zrotation
                    JOINT lElbow
                    {
                        OFFSET   0.245000   0.000000   0.000000
                        CHANNELS 3 Xrotation Yrotation Zrotation
                        JOINT lWrist
                        {
                            OFFSET   0.240000   0.000000   0.000000
                            CHANNELS 3 Xrotation Yrotation Zrotation
                            End Site
                            {
                                OFFSET   0.116353  -0.002500   0.000000
                            }
                        }
                    }
                }
            }
            JOINT rTorso_Clavicle
            {
                OFFSET  -0.001000   0.157500   0.000000
                CHANNELS 3 Xrotation Yrotation Zrotation
                JOINT rShoulder
                {
                    OFFSET  -0.117647   0.000000   0.000000
                    CHANNELS 3 Xrotation Yrotation Zrotation
                    JOINT rElbow
                    {
                        OFFSET  -0.245000   0.000000   0.000000
                        CHANNELS 3 Xrotation Yrotation Zrotation
                        JOINT rWrist
                        {
                            OFFSET  -0.240000   0.000000   0.000000
                            CHANNELS 3 Xrotation Yrotation Zrotation
                            End Site
                            {
                                OFFSET  -0.116353  -0.002500   0.000000
                            }
                        }
                    }
                }
            }
        }
    }
}
MOTION
Frames: 5
Frame Time:   0.010000
  2.287266   1.009550  -2.377001 173.527027 -53.022572 173.297308 -17.386508   5.443817  -2.909849  54.469751  -1.629138   7.050346  19.098180  -4.467821  -5.399045   0.000001   0.000000   0.000001 -16.643869   1.645599   1.265510  49.090809   8.974440  -0.975229  13.278113   5.675329   5.199395  -0.000003   0.000002   0.000001   0.653060   0.309882   0.436410   2.607344   1.120195   1.765015   6.726051  11.704029  -2.088107   1.243942   2.779949 -14.804003  15.178429 -10.741795 -39.320196  67.930639 -81.320011  73.343465   6.926123 -15.897546  20.952149  -1.537763   2.343895  15.135350  11.481396  -9.632133  42.809628  90.281406  77.979443 -90.285079   6.420583  18.498383 -14.249500
  2.275262   1.015275  -2.385643 173.733420 -52.789543 173.401697 -18.277864   6.287118  -2.485917  54.191277  -0.952733   7.399205  19.079327  -3.962564  -5.781461   0.000001   0.000001   0.000000 -17.330360   1.320697   1.173391  48.330078   8.341051  -1.053214  12.590872   5.189119   5.739378  -0.000001   0.000002   0.000000   0.844481   0.332215   0.423714   3.372540   1.217971   1.710482   6.754308  11.942807  -2.104359   1.230389   2.933380 -14.634460  15.132877  -9.866530 -39.774538  61.528018 -81.098229  66.765249   8.044652 -15.288578  21.613841  -1.505284   2.262798  14.886089  11.394178 -10.117309  42.701908  90.378336  77.970051 -90.365976   6.732399  18.257111 -14.044199
  2.263259   1.021000  -2.394285 173.938016 -52.556290 173.504149 -19.177020   7.123728  -2.048086  53.908726  -0.278043   7.751303  19.063863  -3.457192  -6.163492   0.000001   0.000001   0.000000 -18.017294   0.996922   1.077397  47.569661   7.708740  -1.139557  11.908766   4.696520   6.273072   0.000000   0.000003  -0.000001   1.035907   0.354505   0.410944   4.137858   1.315010   1.654645   6.782659  12.181577  -2.120746   1.216379   3.086770 -14.464856  15.094470  -8.990938 -40.227023  55.513625 -80.768966  60.575195   9.152630 -14.667344  22.261222  -1.473159   2.181561  14.636888  11.305896 -10.602322  42.593271  90.475128  77.960631 -90.446736   7.044693  18.016903 -13.837803
  2.251255   1.026725  -2.402927 174.140849 -52.322817 173.604697 -20.084337   7.953380  -1.596209  53.622031   0.394890   8.106728  19.051782  -2.951729  -6.545197   0.000001   0.000002  -0.000001 -18.704713   0.674322   0.977535  46.809373   7.077620  -1.234224  11.231749   4.197650   6.800490   0.000001   0.000003  -0.000002   1.227339   0.376753   0.398100   4.903301   1.411295   1.597515   6.811106  12.420339  -2.137268   1.201913   3.240118 -14.295189  15.063136  -8.115074 -40.677877  49.976981 -80.343213  54.862797  10.250204 -14.034188  22.894291  -1.441391   2.100185  14.387745  11.216534 -11.087168  42.483695  90.571781  77.951183 -90.527356   7.357472  17.777769 -13.630313
  2.239092   1.030148  -2.411768 173.845108 -52.047565 173.335878 -20.962390   8.547606  -1.064923  52.215170   0.759248   8.000347  17.905883  -2.502822  -6.336842  -0.000003   0.000004   0.000000 -19.398837   0.070628   0.918194  45.028955   6.739266  -1.383504  10.144975   3.905683   6.595040   0.000000   0.000004  -0.000001   1.346286   0.399572   0.403568   5.378436   1.504665   1.616670   6.718286  12.731314  -2.326156   1.179134   3.523242 -14.029542  15.087879  -7.182763 -41.515484  45.632544 -79.927199  50.410809  10.828911 -13.304688  22.334144  -1.413810   1.996867  14.178457  11.390741 -11.834599  42.197133  90.662577  77.946261 -90.621488   7.962736  16.928646 -13.269533
